<mxfile host="app.diagrams.net" modified="2023-07-28T10:41:02.266Z" agent="Mozilla/5.0 (Windows NT 10.0; Win64; x64) AppleWebKit/537.36 (KHTML, like Gecko) Chrome/115.0.0.0 Safari/537.36" version="21.6.5" etag="GBhNMNobwTl4-m7BT0yG" type="github">
  <diagram name="Page-1" id="CyjIzZw3cB17qHb9viK_">
    <mxGraphModel>
      <root>
        <mxCell id="0" />
        <mxCell id="1" parent="0" />
      </root>
    </mxGraphModel>
  </diagram>
</mxfile>
